# xmcd
#
# Track frame offsets:
#	150
#	15200
#	30346
#	45068
#	60791
#	74796
#	93746
#	107598
#	123180
#	137882
#	152238
#	167870
#	182915
#	194531
#	207045
#	222034
#	237360
#	250613
#	266065
#	283979
#
# Disc length: 3951 seconds
#
# Revision: 0
# Processed by: cddbd v1.5.2PL0 Copyright (c) Steve Scherf et al.
# Submitted via: EasyCDDAExtractor 16.0.6.1
#
DISCID=180f6d14
DTITLE=Various Artist - Le Son Dancefloor Summer 2018 [CD1)
DYEAR=2018
DGENRE=Dance
TTITLE0=Maître Gims Feat. Vianney - La Même
TTITLE1=Sean Paul and David Guetta Feat. Becky G - Mad Love
TTITLE2=Dj Snake - Magenta Riddim
TTITLE3=Jax Jones Feat. Ina Wroldsen - Breathe
TTITLE4=Zedd Feat. Maren Morris Feat. Grey - The Middle
TTITLE5=Axwell and Ingrosso - Dreamer
TTITLE6=Feder - Breathe
TTITLE7=Ariana Grande - No Tears Left To Cry
TTITLE8=Inna Feat. Dj Sem and Matt Houston - La Roulette
TTITLE9=Kendji Girac - Maria Maria
TTITLE10=Marwa Loud - Fallait Pas
TTITLE11=L'algérino Feat. Kore - Va Bene
TTITLE12=Lost Frequencies and Zonderling - Crazy
TTITLE13=Deejay H Feat. Daryl - Shazamé
TTITLE14=Armin Van Buuren Feat. Conrad Sewell - Sex, Love and Water
TTITLE15=Jahyanai Feat. Bamby - Who Mad Again
TTITLE16=Kelvin - Let Me Forget U
TTITLE17=Sigala Feat. Paloma Faith - Lullaby
TTITLE18=Kygo Feat. Justin Jesso - Stargazing
TTITLE19=El Profesor - Bella Ciao (Hugel Remix)
EXTD=
EXTT0=
EXTT1=
EXTT2=
EXTT3=
EXTT4=
EXTT5=
EXTT6=
EXTT7=
EXTT8=
EXTT9=
EXTT10=
EXTT11=
EXTT12=
EXTT13=
EXTT14=
EXTT15=
EXTT16=
EXTT17=
EXTT18=
EXTT19=
PLAYORDER=
